<svg width="65" height="65" viewBox="0 0 65 65" fill="none" xmlns="http://www.w3.org/2000/svg">
<path fill-rule="evenodd" clip-rule="evenodd" d="M32.5 5.41671C17.5424 5.41671 5.41675 17.5423 5.41675 32.5C5.41675 47.4576 17.5424 59.5834 32.5 59.5834C47.4579 59.5834 59.5835 47.4577 59.5835 32.5C59.5835 17.5423 47.4579 5.41671 32.5 5.41671ZM32.5 54.1667C20.5531 54.1667 10.8335 44.4471 10.8335 32.5C10.8335 20.553 20.553 10.8334 32.5 10.8334C44.4472 10.8334 54.1667 20.553 54.1667 32.5C54.1667 44.4471 44.4472 54.1667 32.5 54.1667ZM35.8915 21.6667C35.8915 23.6304 34.4617 25.0522 32.5276 25.0522C30.5153 25.0522 29.1205 23.6303 29.1205 21.6291C29.1205 19.7058 30.553 18.2814 32.5276 18.2814C34.4617 18.2814 35.8915 19.7058 35.8915 21.6667ZM29.7977 29.7917H35.2143V46.0417H29.7977V29.7917Z" fill="black"/>
</svg>
