<svg width="42" height="44" viewBox="0 0 42 44" fill="none" xmlns="http://www.w3.org/2000/svg">
<path d="M35.859 16.446C35.859 20.3892 34.2926 24.171 31.5043 26.9593C28.716 29.7476 24.9343 31.314 20.991 31.314C17.0478 31.314 13.2661 29.7476 10.4778 26.9593C7.68949 24.171 6.12305 20.3892 6.12305 16.446C6.12305 12.5028 7.68949 8.72103 10.4778 5.93274C13.2661 3.14445 17.0478 1.578 20.991 1.578C24.9343 1.578 28.716 3.14445 31.5043 5.93274C34.2926 8.72103 35.859 12.5028 35.859 16.446Z" stroke="white" stroke-linecap="round" stroke-linejoin="round"/>
<path d="M8.112 23.739L1.5 35.193L8.643 33.279L10.56 40.422L16.296 30.486M33.888 23.739L40.5 35.193L33.354 33.279L31.44 40.422L25.704 30.486M21.6 8.37299L23.649 12.495C23.6935 12.5997 23.7655 12.6904 23.8574 12.7575C23.9493 12.8246 24.0577 12.8655 24.171 12.876L28.722 13.566C28.8522 13.5826 28.975 13.6361 29.0759 13.7201C29.1768 13.8041 29.2517 13.9151 29.2917 14.0402C29.3317 14.1652 29.3352 14.2991 29.3018 14.4261C29.2683 14.553 29.1994 14.6678 29.103 14.757L25.74 17.949C25.6896 18.0442 25.6632 18.1503 25.6632 18.258C25.6632 18.3657 25.6896 18.4718 25.74 18.567L26.385 23.091C26.413 23.2221 26.4022 23.3585 26.3539 23.4836C26.3056 23.6086 26.2219 23.7169 26.1131 23.7952C26.0043 23.8735 25.875 23.9184 25.7411 23.9244C25.6072 23.9304 25.4744 23.8972 25.359 23.829L21.309 21.687C21.2043 21.6398 21.0908 21.6154 20.976 21.6154C20.8612 21.6154 20.7477 21.6398 20.643 21.687L16.593 23.829C16.4777 23.8954 16.3457 23.927 16.2128 23.9201C16.08 23.9132 15.9519 23.8681 15.8442 23.7901C15.7364 23.7121 15.6534 23.6046 15.6053 23.4806C15.5572 23.3566 15.546 23.2213 15.573 23.091L16.335 18.567C16.3681 18.4621 16.3744 18.3507 16.3534 18.2428C16.3325 18.1348 16.2849 18.0339 16.215 17.949L12.858 14.73C12.7678 14.6398 12.7044 14.5263 12.6748 14.4022C12.6452 14.2781 12.6506 14.1482 12.6903 14.0269C12.7301 13.9057 12.8028 13.7979 12.9001 13.7155C12.9975 13.633 13.1159 13.5792 13.242 13.56L17.79 12.9C17.9033 12.8895 18.0117 12.8486 18.1036 12.7815C18.1955 12.7144 18.2675 12.6237 18.312 12.519L20.361 8.39699C20.4155 8.27999 20.5018 8.18064 20.61 8.11023C20.7182 8.03982 20.844 8.00116 20.973 7.99866C21.1021 7.99616 21.2293 8.02992 21.3401 8.09609C21.4509 8.16226 21.541 8.25819 21.6 8.37299Z" stroke="white" stroke-linecap="round" stroke-linejoin="round"/>
</svg>
