<svg width="65" height="65" viewBox="0 0 65 65" fill="none" xmlns="http://www.w3.org/2000/svg">
<path d="M54.1666 27.0833C54.1666 26.365 53.8812 25.6762 53.3733 25.1683C52.8654 24.6603 52.1765 24.375 51.4583 24.375C50.74 24.375 50.0511 24.6603 49.5432 25.1683C49.0353 25.6762 48.7499 26.365 48.7499 27.0833H54.1666ZM16.2499 27.0833C16.2499 26.365 15.9646 25.6762 15.4567 25.1683C14.9488 24.6603 14.2599 24.375 13.5416 24.375C12.8233 24.375 12.1344 24.6603 11.6265 25.1683C11.1186 25.6762 10.8332 26.365 10.8332 27.0833H16.2499ZM54.9601 34.4148C55.4709 34.9081 56.1551 35.1811 56.8652 35.1749C57.5753 35.1688 58.2546 34.8839 58.7567 34.3818C59.2589 33.8797 59.5437 33.2004 59.5499 32.4903C59.556 31.7801 59.2831 31.096 58.7897 30.5852L54.9601 34.4148ZM32.4999 8.125L34.4147 6.21021C33.9068 5.70247 33.2181 5.41724 32.4999 5.41724C31.7818 5.41724 31.093 5.70247 30.5851 6.21021L32.4999 8.125ZM6.21012 30.5852C5.95145 30.835 5.74512 31.1339 5.60318 31.4643C5.46124 31.7947 5.38653 32.1501 5.3834 32.5097C5.38028 32.8694 5.4488 33.226 5.58498 33.5588C5.72116 33.8917 5.92226 34.1941 6.17655 34.4484C6.43085 34.7027 6.73324 34.9038 7.06608 35.0399C7.39893 35.1761 7.75556 35.2446 8.11517 35.2415C8.47478 35.2384 8.83017 35.1637 9.16059 35.0217C9.49102 34.8798 9.78987 34.6735 10.0397 34.4148L6.21012 30.5852ZM18.9582 59.5833H46.0416V54.1667H18.9582V59.5833ZM54.1666 51.4583V27.0833H48.7499V51.4583H54.1666ZM16.2499 51.4583V27.0833H10.8332V51.4583H16.2499ZM58.7897 30.5852L34.4147 6.21021L30.5851 10.0398L54.9601 34.4148L58.7897 30.5852ZM30.5851 6.21021L6.21012 30.5852L10.0397 34.4148L34.4147 10.0398L30.5851 6.21021ZM46.0416 59.5833C48.1965 59.5833 50.2631 58.7273 51.7868 57.2036C53.3106 55.6798 54.1666 53.6132 54.1666 51.4583H48.7499C48.7499 52.1766 48.4646 52.8655 47.9567 53.3734C47.4488 53.8813 46.7599 54.1667 46.0416 54.1667V59.5833ZM18.9582 54.1667C18.24 54.1667 17.5511 53.8813 17.0432 53.3734C16.5353 52.8655 16.2499 52.1766 16.2499 51.4583H10.8332C10.8332 53.6132 11.6893 55.6798 13.213 57.2036C14.7367 58.7273 16.8034 59.5833 18.9582 59.5833V54.1667Z" fill="black"/>
</svg>
