<svg width="53" height="52" viewBox="0 0 53 52" fill="none" xmlns="http://www.w3.org/2000/svg">
<path d="M24.1887 24.1077C22.1504 24.1077 20.158 23.5147 18.4632 22.4037C16.7685 21.2927 15.4476 19.7135 14.6676 17.866C13.8876 16.0184 13.6835 13.9854 14.0811 12.024C14.4788 10.0627 15.4603 8.26104 16.9016 6.84698C18.3428 5.43291 20.1791 4.46992 22.1782 4.07978C24.1773 3.68965 26.2494 3.88988 28.1325 4.65517C30.0155 5.42045 31.6251 6.71642 32.7574 8.37918C33.8898 10.0419 34.4942 11.9968 34.4942 13.9966C34.4942 16.6782 33.4085 19.25 31.4758 21.1462C29.5431 23.0424 26.9219 24.1077 24.1887 24.1077ZM24.1887 6.88995C22.7328 6.88995 21.3096 7.31352 20.0991 8.10711C18.8885 8.9007 17.9451 10.0287 17.3879 11.3483C16.8308 12.668 16.685 14.1202 16.969 15.5212C17.253 16.9221 17.9541 18.209 18.9836 19.2191C20.0131 20.2291 21.3247 20.9169 22.7526 21.1956C24.1805 21.4743 25.6606 21.3313 27.0057 20.7846C28.3507 20.238 29.5004 19.3123 30.3092 18.1246C31.1181 16.9369 31.5498 15.5406 31.5498 14.1122C31.5498 13.1637 31.3594 12.2246 30.9895 11.3483C30.6195 10.4721 30.0773 9.67593 29.3938 9.00529C28.7102 8.33464 27.8988 7.80266 27.0057 7.43971C26.1126 7.07676 25.1554 6.88995 24.1887 6.88995ZM32.389 25.8555C24.422 24.0955 16.0868 24.9427 8.65674 28.2677C7.63487 28.7466 6.77268 29.5005 6.1706 30.4416C5.56852 31.3827 5.25131 32.4722 5.25591 33.5833V42.1777C5.25591 42.3674 5.29399 42.5552 5.36798 42.7305C5.44196 42.9057 5.5504 43.065 5.68711 43.1991C5.82382 43.3332 5.98612 43.4396 6.16474 43.5122C6.34335 43.5848 6.5348 43.6222 6.72813 43.6222C6.92147 43.6222 7.11291 43.5848 7.29153 43.5122C7.47014 43.4396 7.63244 43.3332 7.76915 43.1991C7.90586 43.065 8.0143 42.9057 8.08829 42.7305C8.16227 42.5552 8.20035 42.3674 8.20035 42.1777V33.5833C8.18753 33.021 8.3423 32.4672 8.64567 31.9899C8.94904 31.5127 9.3878 31.1327 9.90813 30.8966C14.3839 28.8685 19.2586 27.8281 24.1887 27.8488C26.951 27.8457 29.7039 28.1657 32.389 28.8022V25.8555ZM32.5951 39.5922H41.6345V41.6144H32.5951V39.5922Z" fill="#313131"/>
<path d="M48.8337 31.0121H41.2223V33.901H47.3615V45.991H26.5001V33.901H35.7751V34.5077C35.7751 34.8908 35.9302 35.2582 36.2063 35.529C36.4824 35.7999 36.8569 35.9521 37.2473 35.9521C37.6378 35.9521 38.0123 35.7999 38.2884 35.529C38.5644 35.2582 38.7196 34.8908 38.7196 34.5077V28.8888C38.7196 28.5057 38.5644 28.1383 38.2884 27.8674C38.0123 27.5965 37.6378 27.4443 37.2473 27.4443C36.8569 27.4443 36.4824 27.5965 36.2063 27.8674C35.9302 28.1383 35.7751 28.5057 35.7751 28.8888V31.0121H25.0279C24.6374 31.0121 24.263 31.1643 23.9869 31.4352C23.7108 31.7061 23.5557 32.0735 23.5557 32.4566V47.4354C23.5557 47.8185 23.7108 48.1859 23.9869 48.4568C24.263 48.7277 24.6374 48.8799 25.0279 48.8799H48.8337C49.2242 48.8799 49.5986 48.7277 49.8747 48.4568C50.1508 48.1859 50.3059 47.8185 50.3059 47.4354V32.4566C50.3059 32.0735 50.1508 31.7061 49.8747 31.4352C49.5986 31.1643 49.2242 31.0121 48.8337 31.0121Z" fill="#313131"/>
</svg>
