<svg width="24" height="24" viewBox="0 0 24 24" fill="none" xmlns="http://www.w3.org/2000/svg">
<path d="M16.6289 13.891L17.0849 13.438L16.0259 12.374L15.5719 12.827L16.6289 13.891ZM18.6139 13.248L20.5249 14.287L21.2399 12.969L19.3299 11.931L18.6139 13.248ZM20.8919 16.351L19.4719 17.764L20.5289 18.827L21.9489 17.415L20.8919 16.351ZM18.6059 18.218C17.1559 18.354 13.4059 18.233 9.34393 14.195L8.28593 15.258C12.7179 19.665 16.9369 19.881 18.7459 19.712L18.6059 18.218ZM9.34393 14.195C5.47293 10.345 4.83093 7.10799 4.75093 5.70299L3.25293 5.78799C3.35293 7.55599 4.14793 11.144 8.28593 15.258L9.34393 14.195ZM10.7189 8.01499L11.0059 7.72899L9.94993 6.66599L9.66293 6.95099L10.7189 8.01499ZM11.2339 4.09399L9.97393 2.40999L8.77293 3.30999L10.0329 4.99299L11.2339 4.09399ZM5.73293 2.04299L4.16293 3.60299L5.22093 4.66699L6.78993 3.10699L5.73293 2.04299ZM10.1909 7.48299C9.66093 6.95099 9.66093 6.95099 9.66093 6.95299H9.65893L9.65593 6.95699C9.60841 7.0049 9.56586 7.05751 9.52893 7.11399C9.47493 7.19399 9.41593 7.29899 9.36593 7.43199C9.2442 7.77532 9.21388 8.1444 9.27793 8.50299C9.41193 9.36799 10.0079 10.511 11.5339 12.029L12.5919 10.965C11.1629 9.54499 10.8229 8.68099 10.7599 8.27299C10.7299 8.07899 10.7609 7.98299 10.7699 7.96099C10.7759 7.94766 10.7759 7.94566 10.7699 7.95499C10.761 7.96879 10.751 7.98183 10.7399 7.99399L10.7299 8.00399L10.7199 8.01299L10.1909 7.48299ZM11.5339 12.029C13.0609 13.547 14.2099 14.139 15.0759 14.271C15.5189 14.339 15.8759 14.285 16.1469 14.184C16.2987 14.1285 16.4406 14.0488 16.5669 13.948L16.6169 13.903L16.6239 13.897L16.6269 13.894L16.6279 13.892C16.6279 13.892 16.6289 13.891 16.0999 13.359C15.5699 12.827 15.5729 12.826 15.5729 12.826L15.5749 12.824L15.5769 12.822L15.5829 12.817L15.5929 12.807L15.6309 12.777C15.6403 12.771 15.6379 12.7717 15.6239 12.779C15.5989 12.788 15.5009 12.819 15.3039 12.789C14.8899 12.725 14.0199 12.385 12.5919 10.965L11.5339 12.029ZM9.97393 2.40899C8.95393 1.04899 6.94993 0.83299 5.73293 2.04299L6.78993 3.10699C7.32193 2.57799 8.26593 2.63299 8.77293 3.30999L9.97393 2.40899ZM4.75193 5.70399C4.73193 5.35799 4.89093 4.99599 5.22093 4.66799L4.16193 3.60399C3.62493 4.13799 3.20193 4.89399 3.25293 5.78799L4.75193 5.70399ZM19.4719 17.764C19.1979 18.038 18.9019 18.192 18.6069 18.219L18.7459 19.712C19.4809 19.643 20.0819 19.273 20.5299 18.828L19.4719 17.764ZM11.0059 7.72899C11.9909 6.74999 12.0639 5.20299 11.2349 4.09499L10.0339 4.99399C10.4369 5.53299 10.3769 6.23999 9.94893 6.66699L11.0059 7.72899ZM20.5259 14.288C21.3429 14.732 21.4699 15.778 20.8929 16.352L21.9509 17.415C23.2909 16.082 22.8779 13.859 21.2409 12.97L20.5259 14.288ZM17.0849 13.439C17.4689 13.057 18.0869 12.963 18.6149 13.249L19.3309 11.932C18.2469 11.342 16.9029 11.505 16.0269 12.375L17.0849 13.439Z" fill="#313131"/>
</svg>
