<svg width="65" height="65" viewBox="0 0 65 65" fill="none" xmlns="http://www.w3.org/2000/svg">
<g clip-path="url(#clip0_655_267)">
<path d="M16.25 24.375C18.4049 24.375 20.4715 23.519 21.9952 21.9952C23.519 20.4715 24.375 18.4049 24.375 16.25M16.25 24.375C14.0951 24.375 12.0285 23.519 10.5048 21.9952C8.98102 20.4715 8.125 18.4049 8.125 16.25M16.25 24.375V32.5M24.375 16.25C24.375 14.0951 23.519 12.0285 21.9952 10.5048C20.4715 8.98102 18.4049 8.125 16.25 8.125M24.375 16.25H32.5M16.25 8.125C14.0951 8.125 12.0285 8.98102 10.5048 10.5048C8.98102 12.0285 8.125 14.0951 8.125 16.25M16.25 8.125V0M8.125 16.25H0M5.41667 5.41667L10.8333 10.8333M21.6667 21.6667L27.0833 27.0833M27.0833 5.41667L21.6667 10.8333M10.8333 21.6667L5.41667 27.0833M48.75 32.5C50.9049 32.5 52.9715 31.644 54.4952 30.1202C56.019 28.5965 56.875 26.5299 56.875 24.375M48.75 32.5C46.5951 32.5 44.5285 31.644 43.0048 30.1202C41.481 28.5965 40.625 26.5299 40.625 24.375M48.75 32.5V40.625M56.875 24.375C56.875 22.2201 56.019 20.1535 54.4952 18.6298C52.9715 17.106 50.9049 16.25 48.75 16.25M56.875 24.375H65M48.75 16.25C46.5951 16.25 44.5285 17.106 43.0048 18.6298C41.481 20.1535 40.625 22.2201 40.625 24.375M48.75 16.25V8.125M40.625 24.375H32.5M37.9167 13.5417L43.3333 18.9583M54.1667 29.7917L59.5833 35.2083M59.5833 13.5417L54.1667 18.9583M43.3333 29.7917L37.9167 35.2083M24.375 56.875C26.5299 56.875 28.5965 56.019 30.1202 54.4952C31.644 52.9715 32.5 50.9049 32.5 48.75M24.375 56.875C22.2201 56.875 20.1535 56.019 18.6298 54.4952C17.106 52.9715 16.25 50.9049 16.25 48.75M24.375 56.875V65M32.5 48.75C32.5 46.5951 31.644 44.5285 30.1202 43.0048C28.5965 41.481 26.5299 40.625 24.375 40.625M32.5 48.75H40.625M24.375 40.625C22.2201 40.625 20.1535 41.481 18.6298 43.0048C17.106 44.5285 16.25 46.5951 16.25 48.75M24.375 40.625V32.5M16.25 48.75H8.125M13.5417 37.9167L18.9583 43.3333M29.7917 54.1667L35.2083 59.5833M35.2083 37.9167L29.7917 43.3333M18.9583 54.1667L13.5417 59.5833" stroke="black" stroke-width="3"/>
</g>
<defs>
<clipPath id="clip0_655_267">
<rect width="65" height="65" fill="white"/>
</clipPath>
</defs>
</svg>
